HIERARCHY
ROOT Hips
{
	OFFSET 0.000000 0.000000 0.000000 
	CHANNELS 6 Xposition Yposition Zposition Yrotation Zrotation Xrotation 
	JOINT Lumbar
	{
		OFFSET 0.000000 0.000000 0.000000 
		CHANNELS 3 Zrotation Xrotation Yrotation
		JOINT Neck
		{
			OFFSET 0.000000 0.445665 0.000000 
			CHANNELS 3 Zrotation Xrotation Yrotation
			End Site
			{
				OFFSET 0.000000 0.227535 0.000000 
			}
		}
		JOINT RightShoulder
		{
			OFFSET 0.019635 0.377685 0.194865 
			CHANNELS 3 Zrotation Xrotation Yrotation
			JOINT RightElbow
			{
				OFFSET 0.000000 -0.243375 0.000000 
				CHANNELS 2 Zrotation Yrotation
				JOINT RightWrist
				{
					OFFSET 0.000000 -0.264825 0.000000 
					CHANNELS 2 Zrotation Xrotation
					End Site
					{
						OFFSET 0.006600 -0.176220 0.000990 
					}
				}
			}
		}
		JOINT LeftShoulder
		{
			OFFSET 0.019635 0.377685 -0.194865 
			CHANNELS 3 Zrotation Xrotation Yrotation
			JOINT LeftElbow
			{
				OFFSET 0.000000 -0.243375 0.000000 
				CHANNELS 2 Zrotation Yrotation
				JOINT LeftWrist
				{
					OFFSET 0.000000 -0.264825 0.000000 
					CHANNELS 2 Zrotation Xrotation
					End Site
					{
						OFFSET 0.006600 -0.176220 -0.000990 
					}
				}
			}
		}
	}
	JOINT RightHip
	{
		OFFSET 0.052140 -0.069960 0.075570 
		CHANNELS 3 Zrotation Xrotation Yrotation
		JOINT RightKnee
		{
			OFFSET 0.000000 -0.402270 0.000000 
			CHANNELS 1 Zrotation
			JOINT RightAnkle
			{
				OFFSET 0.000000 -0.404085 0.000000 
				CHANNELS 3 Zrotation Xrotation Yrotation
				End Site
				{
					OFFSET 0.204105 -0.089430 0.008415 
				}
			}
		}
	}
	JOINT LeftHip
	{
		OFFSET 0.052140 -0.069960 -0.075570 
		CHANNELS 3 Zrotation Xrotation Yrotation
		JOINT LeftKnee
		{
			OFFSET 0.000000 -0.402270 0.000000 
			CHANNELS 1 Zrotation
			JOINT LeftAnkle
			{
				OFFSET 0.000000 -0.404085 0.000000 
				CHANNELS 3 Zrotation Xrotation Yrotation
				End Site
				{
					OFFSET 0.204105 -0.089430 -0.008415 
				}
			}
		}
	}
}
MOTION
Frames: 14
Frame Time: 0.02
-0.00048 0.00086 -0.00199 -78.06578 -30.65653 -2.33357 41.97365 2.60409 -0.8267 -15.81458 1.20048 -1.15395 -7.58671 -6.99425 -14.55002 29.88647 89.66748 5.58334 0.53246 -37.69621 1.22405 30.73109 33.30008 -153.66124 32.74583 -9.71847 36.65478 -3.41312 -4.22331 -20.44952 -6.64354 -2.72335 -3.54652 37.64839 2.45186 5.63355 -24.8071 -6.92134 3.31483 3.85973
-0.00042 0.0007 -0.00048 -76.94448 -30.55818 -2.21926 42.02407 2.41285 -1.74232 -15.60909 0.91208 -1.15648 -8.47182 -7.11211 -14.24424 29.73515 90.03794 5.68476 0.65157 -36.48088 2.54307 25.97333 33.15239 -149.13911 31.0178 -9.0314 36.27287 -3.55827 -4.86916 -20.4767 -6.59997 -2.72645 -3.54633 37.50192 2.49554 5.95165 -24.7902 -6.88826 3.21579 3.80759
-0.00037 0.00053 0.00103 -75.82539 -30.46005 -2.10518 42.0746 2.22194 -2.65558 -15.40424 0.62424 -1.15902 -9.35606 -7.22941 -13.93933 29.58436 90.40736 5.78583 0.77037 -35.26795 3.85973 21.22931 33.00778 -144.62924 29.29391 -8.34641 35.89168 -3.70278 -5.51303 -20.50381 -6.55653 -2.72962 -3.54618 37.35571 2.53933 6.26914 -24.77331 -6.85529 3.1169 3.75555
-0.00032 0.00036 0.00253 -74.70731 -30.362 -1.99121 42.1249 2.03125 -3.56848 -15.19938 0.33668 -1.16155 -10.23875 -7.34687 -13.63449 29.43351 90.77668 5.88692 0.88912 -34.05616 5.17499 16.48599 32.86109 -140.12068 27.57096 -7.66144 35.51088 -3.84745 -6.15689 -20.53091 -6.5131 -2.73273 -3.54599 37.20967 2.58293 6.58635 -24.75646 -6.82231 3.01814 3.70355
-0.00026 0.0002 0.00403 -73.58758 -30.26377 -1.87706 42.17501 1.84036 -4.48352 -14.99388 0.04864 -1.16408 -11.12163 -7.46496 -13.32879 29.28212 91.14705 5.9884 1.00817 -32.84244 6.49187 11.72947 32.71002 -135.60073 25.84444 -6.97444 35.12953 -3.99282 -6.80273 -20.55809 -6.46955 -2.73572 -3.54574 37.06343 2.6263 6.90394 -24.73962 -6.78923 2.91932 3.65151
-0.00021 3e-05 0.00554 -72.46994 -30.16583 -1.76314 42.22642 1.64941 -5.39294 -14.79043 -0.23877 -1.16661 -12.00864 -7.58059 -13.02554 29.13261 91.51445 6.08861 1.1264 -31.63122 7.80792 7.01212 32.5788 -131.11246 24.12627 -6.29372 34.74867 -4.13553 -7.44242 -20.58502 -6.42633 -2.7393 -3.54581 36.91726 2.67094 7.22114 -24.72261 -6.75649 2.82028 3.59946
-0.00015 -0.00013 0.00704 -71.34915 -30.06743 -1.64889 42.27511 1.45875 -6.31276 -14.58304 -0.52706 -1.16915 -12.88635 -7.70103 -12.71774 28.97945 91.88728 6.19119 1.24615 -30.41644 9.12439 2.22088 32.40867 -126.56499 22.39292 -5.6011 34.3673 -4.28342 -8.09374 -20.61245 -6.38249 -2.7417 -3.54524 36.77118 2.71305 7.53902 -24.70597 -6.7231 2.72174 3.54745
-0.0001 -0.0003 0.00855 -70.23157 -29.96942 -1.53491 42.3264 1.2679 -7.22284 -14.37935 -0.81464 -1.17168 -13.77265 -7.81706 -12.41408 28.82971 92.25537 6.29173 1.36452 -29.20469 10.44012 -2.50174 32.27279 -122.07281 20.67406 -4.91946 33.98631 -4.42655 -8.7344 -20.63938 -6.33923 -2.74516 -3.54524 36.6249 2.75739 7.85584 -24.689 -6.6903 2.62283 3.49545
-8e-05 -0.00046 0.01007 -69.11601 -29.87197 -1.42132 42.3806 1.0764 -8.12209 -14.17985 -1.10112 -1.1742 -14.67013 -7.92764 -12.11556 28.68388 92.61679 6.38923 1.48115 -27.99693 11.75721 -7.14452 32.18569 -117.64328 18.97002 -4.25094 33.60591 -4.56382 -9.36204 -20.66587 -6.29666 -2.75003 -3.54601 36.47872 2.8049 8.17329 -24.67157 -6.65824 2.52303 3.44325
9e-05 -0.00064 0.01151 -67.98306 -29.77157 -1.30568 42.41724 0.88734 -9.08689 -13.95521 -1.39326 -1.17677 -15.50536 -8.06936 -11.78771 28.51473 93.01398 6.50257 1.60766 -26.76699 13.07333 -12.25898 31.83873 -112.83829 17.17196 -3.50597 33.22247 -4.73469 -10.06466 -20.69537 -6.25006 -2.74716 -3.54259 36.33302 2.83553 8.49289 -24.65659 -6.62198 2.42706 3.39156
-5e-05 -0.00079 0.01314 -66.89073 -29.67722 -1.19428 42.4914 0.69405 -9.91121 -13.78429 -1.67384 -1.17924 -16.47036 -8.14553 -11.52161 28.39534 93.33731 6.58356 1.71341 -25.58359 14.38685 -16.36997 32.02646 -108.83552 15.57811 -2.92298 32.84529 -4.83474 -10.60899 -20.71821 -6.21198 -2.76036 -3.54786 36.18567 2.90086 8.80421 -24.63661 -6.59453 2.32387 3.33919
-0.00101 -0.00088 0.01525 -65.87888 -29.60103 -1.09525 42.66558 0.48142 -10.36478 -13.75686 -1.91945 -1.18139 -17.80706 -8.0389 -11.4283 28.40845 93.44258 6.56592 1.7608 -24.53272 15.73201 -17.76891 33.80827 -106.97996 14.50523 -2.78416 32.48635 -4.738 -10.71619 -20.72524 -6.19741 -2.82023 -3.57848 36.03854 3.07072 9.12557 -24.60146 -6.59181 2.19341 3.28176
-0.00227 -0.00095 0.01757 -64.91419 -29.5306 -1.00041 42.8779 0.26599 -10.67464 -13.78419 -2.15402 -1.18344 -19.27012 -7.86698 -11.39696 28.47176 93.4763 6.5175 1.78757 -23.52917 17.06718 -18.15194 36.10349 -105.9457 13.64743 -2.80881 32.13347 -4.57055 -10.66535 -20.72513 -6.19136 -2.89569 -3.61754 35.8887 3.27415 9.43397 -24.56175 -6.59782 2.057 3.2242
-0.0034 -0.00104 0.01983 -63.94735 -29.45659 -0.90304 43.07478 0.05687 -11.04059 -13.78893 -2.39585 -1.18554 -20.66656 -7.72685 -11.33436 28.51544 93.55313 6.48976 1.82474 -22.49886 18.38186 -18.97356 38.08099 -104.56358 12.71343 -2.75786 31.77712 -4.43713 -10.68818 -20.72664 -6.18135 -2.96242 -3.65183 35.73715 3.45558 9.72513 -24.52481 -6.5995 1.92833 3.16883
